<svg xmlns="http://www.w3.org/2000/svg" aria-hidden="true" class="svg-inline--fa fa-apple-alt fa-w-14" data-icon="apple-alt" data-prefix="fas" viewBox="0 0 448 512">
  <defs/>
  <path fill="currentColor" d="M350.9 129a98 98 0 0163.9 42 187.4 187.4 0 0130 78c4.6 28.7 4.3 57.3-1 86-8 47.3-24 87-48 119-28.6 38.7-64.6 58-107.9 58a75.8 75.8 0 01-35-10c-8.6-5.3-18.2-8-29-8s-20.2 2.7-28.9 8a75.8 75.8 0 01-35 10c-43.2 0-79.2-19.3-107.8-58-24-32-40-71.7-48-119a248.7 248.7 0 01-1-86 187.4 187.4 0 0130-78 98 98 0 0164-42c16-2.7 37.9-.3 65.8 7 24 6.7 44.3 14.7 61 24 16.6-9.3 37-17.3 61-24 27.9-7.3 49.9-9.7 65.9-7zm-55-41a84.6 84.6 0 01-37 19c-10.6 3.3-22.2 5-35 5l-14.9-1c-1.3-9.3-1.3-20 0-32 2.7-24 10.3-42.3 23-55 9.3-8.7 21.6-15 37-19 10.6-3.3 22.2-5 34.9-5l15 1 1 15c0 12.7-1.7 24.3-5 35a84.5 84.5 0 01-19 37z"/>
</svg>
