<svg xmlns="http://www.w3.org/2000/svg" aria-hidden="true" class="svg-inline--fa fa-carrot fa-w-16" data-icon="carrot" data-prefix="fas" viewBox="0 0 512 512">
  <defs/>
  <path fill="currentColor" d="M298.2 156.6A124.2 124.2 0 00148 189.4l55.2 55.2a16 16 0 01-22.6 22.6L130.4 217 2.3 479.7a22.5 22.5 0 0030 30l133.6-65.2-49.2-49.2a15.9 15.9 0 010-22.6 16 16 0 0122.6 0l57 57 102-49.8a124.3 124.3 0 00-.1-223.3zm92.1-34.9C409.8 81 399.7 32.9 360 0c-50.3 41.7-52.5 107.5-7.9 151.9l8 8c44.4 44.6 110.3 42.4 151.9-7.9-32.9-39.7-81-49.8-121.7-30.3z"/>
</svg>
