<svg xmlns="http://www.w3.org/2000/svg" aria-hidden="true" class="svg-inline--fa fa-drumstick-bite fa-w-16" data-icon="drumstick-bite" data-prefix="fas" viewBox="0 0 512 512">
  <defs/>
  <path fill="currentColor" d="M462.8 49.6a169.4 169.4 0 00-239.5 0C187.8 85 160.1 128 160.1 192v85.8l-40.6 40.6c-9.7 9.7-24 11-36.8 6a60.3 60.3 0 00-65 98.7 59.5 59.5 0 0056.1 15.1A59.4 59.4 0 0089 494.3a60.4 60.4 0 0098.8-65c-5-12.7-3.7-27 6-36.7l40.7-40.6h85.9a187.9 187.9 0 0061.8-10c-39.6-43.9-39.8-110.2 1-151A108.5 108.5 0 01512 174c1.3-45-14.8-90.3-49.1-124.5z"/>
</svg>
