<svg xmlns="http://www.w3.org/2000/svg" aria-hidden="true" class="svg-inline--fa fa-edit fa-w-18" data-icon="edit" data-prefix="fas" viewBox="0 0 576 512">
  <defs/>
  <path fill="currentColor" d="M402.6 83.2l90.2 90.2a9.8 9.8 0 010 13.8L274.4 405.6l-92.8 10.3a19.4 19.4 0 01-21.5-21.5l10.3-92.8L388.8 83.2a9.8 9.8 0 0113.8 0zm162-22.9l-48.8-48.8a39.1 39.1 0 00-55.2 0l-35.4 35.4a9.8 9.8 0 000 13.8l90.2 90.2a9.8 9.8 0 0013.8 0l35.4-35.4a39.1 39.1 0 000-55.2zM384 346.2V448H64V128h229.8c3.2 0 6.2-1.3 8.5-3.5l40-40a12 12 0 00-8.5-20.5H48a48 48 0 00-48 48v352a48 48 0 0048 48h352a48 48 0 0048-48V306.2a12 12 0 00-20.5-8.5l-40 40a12.3 12.3 0 00-3.5 8.5z"/>
</svg>
