<svg xmlns="http://www.w3.org/2000/svg" aria-hidden="true" class="svg-inline--fa fa-hamburger fa-w-16" data-icon="hamburger" data-prefix="fas" viewBox="0 0 512 512">
  <defs/>
  <path fill="currentColor" d="M464 256H48a48 48 0 000 96h416a48 48 0 000-96zm16 128H32a16 16 0 00-16 16v16a64 64 0 0064 64h352a64 64 0 0064-64v-16a16 16 0 00-16-16zM58.6 224h394.8c34.5 0 54.6-43.9 34.8-75.9C448 83.2 359.6 32.1 256 32c-103.5.1-192 51.2-232.2 116.1-19.8 32 .3 75.9 34.8 75.9zM384 112a16 16 0 11-16 16 16 16 0 0116-16zM256 80a16 16 0 11-16 16 16 16 0 0116-16zm-128 32a16 16 0 11-16 16 16 16 0 0116-16z"/>
</svg>
