<svg xmlns="http://www.w3.org/2000/svg" aria-hidden="true" class="svg-inline--fa fa-lemon fa-w-16" data-icon="lemon" data-prefix="fas" viewBox="0 0 512 512">
  <defs/>
  <path fill="currentColor" d="M489 23C466-.1 434.6-6 414 6 355 40.4 232.6-46.9 92.8 93S40.4 355 6 413.9C-5.9 434.6 0 466 23 489c23 23.1 54.4 29 75 16.9 59-34.3 181.3 53 321.1-86.8S471.6 157 506 98.1c12-20.7 6.2-52-16.9-75.1zM244 95.5C185.7 110.1 110 185.7 95.5 244a16 16 0 01-31-7.8C81.9 166.4 166.3 82 236 64.5a16 16 0 117.8 31z"/>
</svg>
