<svg xmlns="http://www.w3.org/2000/svg" aria-hidden="true" class="svg-inline--fa fa-sign-out-alt fa-w-16" data-icon="sign-out-alt" data-prefix="fas" viewBox="0 0 512 512">
  <defs/>
  <path fill="currentColor" d="M497 273L329 441a24 24 0 01-41-17v-96H152a24 24 0 01-24-24v-96a24 24 0 0124-24h136V88a24 24 0 0141-17l168 168a24.2 24.2 0 010 34zM192 436v-40a12 12 0 00-12-12H96a32 32 0 01-32-32V160a32 32 0 0132-32h84a12 12 0 0012-12V76a12 12 0 00-12-12H96c-53 0-96 43-96 96v192c0 53 43 96 96 96h84a12 12 0 0012-12z"/>
</svg>
