<svg xmlns="http://www.w3.org/2000/svg" aria-hidden="true" class="svg-inline--fa fa-times fa-w-11" data-icon="times" data-prefix="fas" viewBox="0 0 352 512">
  <defs/>
  <path fill="currentColor" d="M242.7 256l100-100a31.5 31.5 0 000-44.5l-22.2-22.3a31.5 31.5 0 00-44.4 0L176 189.2 76 89.3a31.5 31.5 0 00-44.5 0L9.2 111.5a31.5 31.5 0 000 44.4l100 100.1-100 100a31.5 31.5 0 000 44.5l22.3 22.3a31.5 31.5 0 0044.4 0l100.1-100 100 100a31.5 31.5 0 0044.5 0l22.3-22.2a31.5 31.5 0 000-44.5L242.8 256z"/>
</svg>
